<svg viewBox="0 0 24 24" xmlns="http://www.w3.org/2000/svg">
  <rect width="24" height="24" rx="6" fill="#E5E7EB"/>
  <path fill="#6B7280" fill-rule="evenodd" clip-rule="evenodd" d="M12 3C7.03 3 3 7.03 3 12c0 3.98 2.58 7.35 6.17 8.55.45.08.61-.2.61-.44 0-.22-.01-.94-.01-1.71-2.25.41-2.83-.55-3.01-1.06-.1-.26-.54-1.06-.93-1.27-.32-.17-.78-.59-.01-.6.72-.01 1.24.66 1.41.94.82 1.38 2.13.99 2.65.75.08-.6.32-.99.58-1.22-1.99-.23-4.08-.99-4.08-4.4 0-.97.35-1.77.94-2.4-.09-.23-.41-1.17.09-2.43 0 0 .77-.25 2.52.92.73-.2 1.51-.3 2.29-.3.78 0 1.56.1 2.29.3 1.75-1.18 2.52-.92 2.52-.92.5 1.26.18 2.2.09 2.43.59.63.94 1.43.94 2.4 0 3.42-2.09 4.17-4.08 4.4.33.28.62.82.62 1.65 0 1.19-.01 2.14-.01 2.43 0 .24.16.53.62.44A9.01 9.01 0 0 0 21 12c0-4.97-4.03-9-9-9Z"/>
</svg>
